<mxfile host="app.diagrams.net" modified="2024-05-20T02:01:11.931Z" agent="Mozilla/5.0 (Macintosh; Intel Mac OS X 10_15_7) AppleWebKit/537.36 (KHTML, like Gecko) Chrome/124.0.0.0 Safari/537.36" etag="msmdabjngDEDB_3-fa-s" version="24.4.4" type="github">
  <diagram name="第 1 页" id="mpDOS9dBaBRB9N8fmm2q">
    <mxGraphModel dx="1434" dy="673" grid="1" gridSize="10" guides="1" tooltips="1" connect="1" arrows="1" fold="1" page="1" pageScale="1" pageWidth="827" pageHeight="1169" math="0" shadow="0">
      <root>
        <mxCell id="0" />
        <mxCell id="1" parent="0" />
        <mxCell id="cuf6Y3lO1OeGZOs419_Y-1" value="all categorys" style="rounded=1;whiteSpace=wrap;html=1;" vertex="1" parent="1">
          <mxGeometry x="80" y="80" width="120" height="50" as="geometry" />
        </mxCell>
        <mxCell id="cuf6Y3lO1OeGZOs419_Y-2" value="generate url record" style="rounded=1;whiteSpace=wrap;html=1;" vertex="1" parent="1">
          <mxGeometry x="280" y="80" width="120" height="50" as="geometry" />
        </mxCell>
        <mxCell id="cuf6Y3lO1OeGZOs419_Y-3" value="write cache" style="rounded=1;whiteSpace=wrap;html=1;" vertex="1" parent="1">
          <mxGeometry x="880" y="80" width="120" height="50" as="geometry" />
        </mxCell>
        <mxCell id="cuf6Y3lO1OeGZOs419_Y-4" value="generate content" style="rounded=1;whiteSpace=wrap;html=1;" vertex="1" parent="1">
          <mxGeometry x="480" y="80" width="120" height="50" as="geometry" />
        </mxCell>
        <mxCell id="cuf6Y3lO1OeGZOs419_Y-5" value="relation manage" style="rounded=1;whiteSpace=wrap;html=1;" vertex="1" parent="1">
          <mxGeometry x="680" y="80" width="120" height="50" as="geometry" />
        </mxCell>
      </root>
    </mxGraphModel>
  </diagram>
</mxfile>
